<?xml version="1.0" standalone="no"?>
<!DOCTYPE svg PUBLIC "-//W3C//DTD SVG 20010904//EN"
 "http://www.w3.org/TR/2001/REC-SVG-20010904/DTD/svg10.dtd">
<svg version="1.0" xmlns="http://www.w3.org/2000/svg"
 width="200.000000pt" height="200.000000pt" viewBox="0 0 200.000000 200.000000"
 preserveAspectRatio="xMidYMid meet">

<g transform="translate(0.000000,200.000000) scale(0.100000,-0.100000)"
fill="#000000" stroke="none">
<path d="M0 1365 l0 -25 1000 0 1000 0 0 25 0 25 -1000 0 -1000 0 0 -25z"/>
<path d="M0 1000 l0 -290 78 0 77 0 28 78 c127 355 494 395 657 70 21 -43 42
-94 46 -113 l6 -35 108 0 108 0 6 35 c4 19 25 70 46 113 163 325 530 285 657
-70 l28 -78 78 0 77 0 0 290 0 290 -1000 0 -1000 0 0 -290z"/>
</g>
</svg>
