<?xml version="1.0" encoding="UTF-8"?>
<svg version="1.1" xmlns="http://www.w3.org/2000/svg" width="200" height="200">
<path d="M0 0 C0.99 0.495 1.98 0.99 3 1.5 C3.05607422 2.53060547 3.05607422 2.53060547 3.11328125 3.58203125 C3.21189453 4.93361328 3.21189453 4.93361328 3.3125 6.3125 C3.37050781 7.20582031 3.42851563 8.09914063 3.48828125 9.01953125 C4.07336581 11.85562817 4.6748436 12.81494548 7 14.5 C12.74128942 15.27286588 16.46651081 13.85562939 21 10.5 C24.08423735 7.95375878 27.12328837 5.37649824 30.1328125 2.7421875 C34.61858339 -0.76575867 38.19846453 -1.91016887 43.93359375 -1.7578125 C47.41650112 -1.32327207 49.92145994 -0.1963384 53 1.5 C54 4.5 54 4.5 53.8125 7.4375 C53.74789617 10.54572044 53.74789617 10.54572044 55.5625 12.875 C59.0705141 15.21367606 60.83195635 15.18328584 65 14.5 C69.94392979 11.98357531 74.07786175 8.49862591 78.1875 4.8125 C83.43914898 0.13977295 87.66161704 -2.0207049 94.7421875 -1.8046875 C98.21730383 -1.33572717 100.88655238 -0.08984559 104 1.5 C104.05607422 2.53060547 104.05607422 2.53060547 104.11328125 3.58203125 C104.17902344 4.48308594 104.24476563 5.38414063 104.3125 6.3125 C104.39951172 7.65248047 104.39951172 7.65248047 104.48828125 9.01953125 C105.07554172 11.86617549 105.66219638 12.81309298 108 14.5 C110.32275177 14.90047444 112.65739357 15.2397104 115 15.5 C116 16.5 116 16.5 116.125 19 C116 21.5 116 21.5 115 22.5 C107.99717934 23.09345938 104.8459536 21.74266676 99.40625 17.15625 C97.6487676 15.08632629 97.31225855 13.46506462 96.8125 10.8125 C96.65394531 10.00425781 96.49539062 9.19601563 96.33203125 8.36328125 C96.22246094 7.74839844 96.11289063 7.13351563 96 6.5 C91.27214136 5.90901767 88.85289105 6.23533172 85 9.125 C83.02958398 10.72856313 81.13008428 12.38126536 79.25390625 14.09375 C73.92784152 18.91549914 68.18615949 22.61384701 60.8125 22.9375 C55.5962573 22.33891477 52.53885152 20.91407977 48.6875 17.375 C46.41087003 13.49629709 46.19316337 9.93309931 46 5.5 C38.3312028 6.38002591 34.42148834 9.21354242 28.65234375 14.23828125 C22.32516444 19.63362267 16.70021073 22.87116059 8.28515625 22.7890625 C3.61056873 22.19774716 -0.0240126 18.99534254 -3 15.5 C-3.73046875 13.23828125 -3.73046875 13.23828125 -4.1875 10.8125 C-4.34605469 10.00425781 -4.50460938 9.19601563 -4.66796875 8.36328125 C-4.77753906 7.74839844 -4.88710938 7.13351563 -5 6.5 C-9.72785864 5.90901767 -12.14710895 6.23533172 -16 9.125 C-17.97041602 10.72856313 -19.86991572 12.38126536 -21.74609375 14.09375 C-26.76993603 18.64189359 -32.12590304 22.09644823 -39 22.8125 C-41 22.5 -41 22.5 -42 21.5 C-42.04063832 19.83382885 -42.042721 18.16611905 -42 16.5 C-41.39414062 16.31566406 -40.78828125 16.13132812 -40.1640625 15.94140625 C-34.83136571 14.09547274 -31.10261207 11.96974959 -27 8.0625 C-19.18167857 0.63632009 -10.70572758 -4.46250769 0 0 Z " fill="#73BF69" transform="translate(63,89.5)"/>
</svg>
