<svg xmlns="http://www.w3.org/2000/svg" xmlns:xlink="http://www.w3.org/1999/xlink" version="1.1" x="0px" y="0px" viewBox="0 0 100 125" enable-background="new 0 0 100 100" xml:space="preserve"><path d="M87.706,52.822c-1.496,0.163-2.817-0.321-3.706-1.373c-0.934-1.108-1.212-2.689-0.784-4.241  c0.208-0.753-0.118-1.369-0.731-1.68c-6.146-3.114-9.691,0.168-12.821,3.063c-2.173,2.009-4.223,3.905-7.199,4.231  c-1.502,0.17-2.818-0.321-3.703-1.373c-0.934-1.108-1.229-2.695-0.782-4.241c0.33-1.132-0.636-1.629-0.733-1.68  c-1.535-0.779-2.91-1.157-4.155-1.242c-3.739-0.257-6.321,2.133-8.67,4.305c-2.172,2.009-4.223,3.905-7.2,4.231  c-1.5,0.17-2.816-0.321-3.702-1.373c-0.934-1.108-1.229-2.695-0.782-4.241c0.328-1.132-0.635-1.629-0.734-1.68  c-6.142-3.113-9.69,0.168-12.822,3.063c-2.172,2.009-4.222,3.905-7.199,4.231c-0.79,0.088-1.361,0.798-1.273,1.589  c0.082,0.736,0.704,1.282,1.428,1.282c0.053,0,0.107-0.003,0.16-0.009c3.919-0.43,6.534-2.846,8.839-4.979  c2.79-2.58,4.87-4.487,8.59-3.042c-0.255,2.066,0.298,4.109,1.591,5.641c1.322,1.569,3.236,2.428,5.347,2.428  c0.236,0,0.476-0.017,0.716-0.039c0.054,0,0.107-0.003,0.161-0.009c3.919-0.43,6.534-2.846,8.839-4.979  c2.782-2.573,4.86-4.475,8.563-3.051c0.009,0.004,0.018,0.007,0.025,0.01c-0.253,2.066,0.298,4.107,1.592,5.64  c1.32,1.569,3.236,2.428,5.348,2.428c0.286,0,0.576-0.015,0.868-0.048c3.922-0.43,6.537-2.846,8.843-4.979  c2.786-2.58,4.869-4.489,8.589-3.042c-0.256,2.066,0.301,4.108,1.594,5.641c1.322,1.568,3.236,2.428,5.349,2.428  c0.286,0,0.576-0.015,0.871-0.048c0.79-0.087,1.36-0.798,1.273-1.588S88.504,52.733,87.706,52.822z"/><text x="0" y="115" fill="#000000" font-size="5px" font-weight="bold" font-family="'Helvetica Neue', Helvetica, Arial-Unicode, Arial, Sans-serif">Created by Sergey Demushkin</text><text x="0" y="120" fill="#000000" font-size="5px" font-weight="bold" font-family="'Helvetica Neue', Helvetica, Arial-Unicode, Arial, Sans-serif">from the Noun Project</text></svg>